HIERARCHY
ROOT Hips
{
	OFFSET 0.00000 0.00000 0.00000
	CHANNELS 6 Xposition Yposition Zposition Yrotation Zrotation Xrotation 
	JOINT Lumbar
	{
		OFFSET 0 0 0
		CHANNELS 3 Zrotation Xrotation Yrotation
		JOINT Neck
		{
			OFFSET 0.00 0.2701 0.00
			CHANNELS 3 Zrotation Xrotation Yrotation
			End Site
			{
				OFFSET 0.00 0.1379 0.00
			}
		}
		JOINT RightShoulder
		{
			OFFSET 0.0119 0.2289 0.1181
			CHANNELS 3 Zrotation Xrotation Yrotation
			JOINT RightElbow
			{
				OFFSET 0.00 -0.1475 0.00
				CHANNELS 2 Zrotation Yrotation
				JOINT RightWrist
				{
					OFFSET 0.00 -0.1605 0.00
					CHANNELS 2 Zrotation Xrotation
					End Site
					{
						OFFSET 0.0040 -0.1068 0.0006
					}
				}
			}
		}
		JOINT LeftShoulder
		{
			OFFSET 0.0119 0.2289 -0.1181
			CHANNELS 3 Zrotation Xrotation Yrotation
			JOINT LeftElbow
			{
				OFFSET 0.00 -0.1475 0.00
				CHANNELS 2 Zrotation Yrotation
				JOINT LeftWrist
				{
					OFFSET 0.00 -0.1605 0.00
					CHANNELS 2 Zrotation Xrotation
					End Site
					{
						OFFSET 0.0040 -0.1068 -0.0006
					}
				}
			}
		}
	}
	JOINT RightHip
	{
		OFFSET 0.0316 -0.0424 0.0458
		CHANNELS 3 Zrotation Xrotation Yrotation
		JOINT RightKnee
		{
			OFFSET 0.00 -0.2438 0.00
			CHANNELS 1 Zrotation
			JOINT RightAnkle
			{
				OFFSET 0.00 -0.2449 0.00
				CHANNELS 3 Zrotation Xrotation Yrotation
				End Site
				{
					OFFSET 0.1237 -0.0542 0.0051
				}
			}
		}
	}
	JOINT LeftHip
	{
		OFFSET 0.0316 -0.0424 -0.0458
		CHANNELS 3 Zrotation Xrotation Yrotation
		JOINT LeftKnee
		{
			OFFSET 0.00 -0.2438 0.00
			CHANNELS 1 Zrotation
			JOINT LeftAnkle
			{
				OFFSET 0.00 -0.2449 0.00
				CHANNELS 3 Zrotation Xrotation Yrotation
				End Site
				{
					OFFSET 0.1237 -0.0542 -0.0051
				}
			}
		}
	}
}
MOTION
Frames: 14
Frame Time: 0.02
0 0.57926 -0 167.80022 0 -5.38484 8.9072 8.60155 -18.03265 -28.12247 13.98945 8.62283 26.78988 -31.42504 16.79973 9.81375 86.92261 -3.20367 -2.38074 27.13332 -0.41232 -6.94844 14.55041 -80.4396 0.17982 7.76188 -2.3598 9.78588 4.43654 -7.39877 -11.41233 -1.69184 -6.11936 -8.56813 10.02965 27.95105 -3.37573 -5.29577 2.16883 6.25038
-0.0013 0.5794 0.00193 167.60744 0 -5.44305 9.23976 8.69153 -18.10199 -27.96771 13.92518 8.44028 26.91576 -31.24072 16.83642 9.93105 86.81488 -3.26577 -2.47393 26.86053 -0.42706 -7.74068 14.54697 -80.47201 0.21644 7.72553 -2.39459 9.78771 6.58315 -7.47695 -11.58239 -1.57527 -8.01477 -8.59933 9.91253 28.07992 -3.58425 -5.12459 2.22698 6.30228
-0.00259 0.57954 0.00385 167.41486 0 -5.50105 9.57126 8.78127 -18.17022 -27.81372 13.86057 8.25768 27.0407 -31.05612 16.87099 10.04762 86.70623 -3.32724 -2.56665 26.58593 -0.44165 -8.53338 14.54332 -80.50457 0.25237 7.6894 -2.42912 9.7886 8.71385 -7.55487 -11.7512 -1.45966 -9.89514 -8.63113 9.795 28.20776 -3.79059 -4.9543 2.28488 6.35489
-0.00388 0.57967 0.00578 167.22112 0 -5.55881 9.90109 8.87092 -18.23597 -27.66028 13.79627 8.07457 27.16336 -30.87183 16.90339 10.16305 86.594 -3.38709 -2.65847 26.30395 -0.45833 -9.32901 14.53526 -80.53878 0.28698 7.64874 -2.46301 9.78634 10.80135 -7.63226 -11.91649 -1.34599 -11.73331 -8.666 9.6753 28.33396 -3.98961 -4.78642 2.3422 6.40997
-0.00519 0.57981 0.0077 167.03341 0 -5.61787 10.23891 8.96107 -18.31643 -27.50266 13.73309 7.89595 27.29837 -30.6898 16.95451 10.28525 86.50212 -3.45589 -2.75513 26.06405 -0.46704 -10.10113 14.54627 -80.56509 0.32993 7.626 -2.50037 9.8015 13.11717 -7.71213 -12.10023 -1.22113 -13.79447 -8.68505 9.56781 28.47034 -4.22662 -4.60645 2.40243 6.45087
-0.00647 0.57994 0.00965 166.8332 0 -5.67412 10.56007 9.05005 -18.36461 -27.35491 13.6657 7.7068 27.40697 -30.50051 16.96105 10.3925 86.36637 -3.50545 -2.84142 25.73341 -0.49047 -10.92761 14.51983 -80.60755 0.35428 7.56949 -2.53027 9.77929 14.94814 -7.78691 -12.24488 -1.1207 -15.38229 -8.73727 9.43414 28.58407 -4.38361 -4.45177 2.45657 6.52248
-0.00768 0.58002 0.0117 166.59118 0 -5.72388 10.83783 9.13816 -18.33028 -27.22471 13.60013 7.49239 27.4445 -30.30729 16.88074 10.46403 86.10896 -3.50334 -2.90078 25.15112 -0.57427 -11.88689 14.36133 -80.70265 0.33349 7.37968 -2.5403 9.65353 15.43631 -7.84736 -12.28046 -1.08194 -15.65368 -8.88813 9.22576 28.64436 -4.31114 -4.36896 2.49357 6.6776
-0.00887 0.5801 0.01379 166.33776 0 -5.77059 11.09859 9.2247 -18.26171 -27.10664 13.52763 7.2663 27.45534 -30.10334 16.74814 10.51934 85.80706 -3.48154 -2.94938 24.47735 -0.6691 -12.90483 14.17019 -80.81313 0.29268 7.16256 -2.54263 9.48986 15.43458 -7.90281 -12.27669 -1.06873 -15.44773 -9.07128 8.99119 28.68015 -4.15946 -4.31121 2.5245 6.86407
-0.01006 0.58017 0.01586 166.09379 0 -5.81793 11.36578 9.31054 -18.20498 -26.98851 13.44964 7.04297 27.47687 -29.89387 16.61639 10.57874 85.5255 -3.46782 -3.00191 23.84462 -0.74652 -13.90901 14.01231 -80.9109 0.25704 6.9842 -2.54807 9.34374 15.66221 -7.96078 -12.2919 -1.04775 -15.46835 -9.23542 8.76987 28.72133 -4.0493 -4.2406 2.55845 7.03732
-0.01128 0.58025 0.01793 165.83118 0 -5.86853 11.6384 9.40245 -18.16563 -26.84526 13.40867 6.83092 27.50334 -29.72928 16.58346 10.65266 85.24346 -3.45778 -3.05865 23.2118 -0.87745 -14.86053 13.77631 -81.03098 0.23829 6.69613 -2.55531 9.19676 15.86824 -8.01765 -12.30306 -1.01116 -15.45426 -9.41821 8.54278 28.78685 -3.91546 -4.17627 2.59132 7.20645
-0.01243 0.58033 0.02001 165.6055 0 -5.91154 11.89569 9.48118 -18.07983 -26.7599 13.28826 6.59198 27.51461 -29.46746 16.32966 10.69162 84.95188 -3.43537 -3.10384 22.56048 -0.89803 -15.93326 13.6957 -81.11056 0.17921 6.62822 -2.55676 9.04196 15.99425 -8.0757 -12.31258 -1.01243 -15.39148 -9.56935 8.32166 28.79573 -3.81261 -4.10473 2.62498 7.39134
-0.01334 0.58039 0.02205 165.47798 0 -5.93492 12.11461 9.52543 -17.89298 -26.80779 12.95498 6.28691 27.47761 -28.94898 15.50001 10.64558 84.64465 -3.38373 -3.12177 21.85372 -0.62328 -17.34614 14.04878 -81.06355 0.01386 7.19024 -2.54594 8.88015 16.09595 -8.13729 -12.33382 -1.11834 -15.3788 -9.62931 8.12179 28.65501 -3.81038 -4.00781 2.6624 7.6143
-0.01417 0.58045 0.02409 165.38956 0 -5.95062 12.31855 9.55624 -17.6575 -26.91765 12.54042 5.95419 27.42823 -28.33069 14.44529 10.56358 84.32953 -3.32021 -3.12808 21.13627 -0.23418 -18.87426 14.5601 -80.98343 -0.19351 7.97136 -2.52931 8.71087 16.12119 -8.2003 -12.3537 -1.26039 -15.32265 -9.65553 7.9291 28.45779 -3.84281 -3.90267 2.70078 7.85152
-0.01503 0.58051 0.02613 165.28718 0 -5.96951 12.52971 9.59212 -17.43142 -27.01494 12.1608 5.63071 27.39347 -27.75284 13.48047 10.49301 84.01794 -3.26215 -3.13842 20.44143 0.10959 -20.33796 15.00101 -80.91789 -0.37912 8.64279 -2.51397 8.54146 16.12925 -8.26336 -12.36971 -1.38166 -15.23982 -9.69454 7.73422 28.28613 -3.86229 -3.80084 2.73866 8.08091
